HIERARCHY
ROOT Hips
{
  OFFSET 13.6774 106.653 -34.4427
  CHANNELS 6 Xposition Yposition Zposition Zrotation Xrotation Yrotation
  JOINT ToSpine
  {
    OFFSET -2.69724 7.43032 -0.144315
    CHANNELS 3 Zrotation Xrotation Yrotation
    JOINT Spine
    {
      OFFSET -0.0310711 10.7595 1.96963
      CHANNELS 3 Zrotation Xrotation Yrotation
      JOINT Spine1
      {
        OFFSET 19.9056 3.91189 0.764692
        CHANNELS 3 Zrotation Xrotation Yrotation
        JOINT Neck
        {
          OFFSET 25.9749 7.03908 -0.130764
          CHANNELS 3 Zrotation Xrotation Yrotation
          JOINT Head
          {
            OFFSET 9.52751 0.295786 -0.907742
            CHANNELS 3 Zrotation Xrotation Yrotation
            End Site
            {
              OFFSET 16.4037 0.713936 2.7358
            }
          }
        }
        JOINT LeftShoulder
        {
          OFFSET 17.7449 4.33886 11.7777
          CHANNELS 3 Zrotation Xrotation Yrotation
          JOINT LeftArm
          {
            OFFSET 0.911315 1.27913 9.80584
            CHANNELS 3 Zrotation Xrotation Yrotation
            JOINT LeftForeArm
            {
              OFFSET 28.6126 1.18197 -3.53199
              CHANNELS 3 Zrotation Xrotation Yrotation
              JOINT LeftHand
              {
                OFFSET 27.5088 0.0218783 0.327423
                CHANNELS 3 Zrotation Xrotation Yrotation
                End Site
                {
                  OFFSET 18.6038 -0.000155887 0.382096
                }
              }
            }
          }
        }
        JOINT RightShoulder
        {
          OFFSET 17.1009 2.89543 -12.2328
          CHANNELS 3 Zrotation Xrotation Yrotation
          JOINT RightArm
          {
            OFFSET 1.4228 0.178766 -10.211
            CHANNELS 3 Zrotation Xrotation Yrotation
            JOINT RightForeArm
            {
              OFFSET 28.733 1.87905 2.64907
              CHANNELS 3 Zrotation Xrotation Yrotation
              JOINT RightHand
              {
                OFFSET 27.4588 0.290562 -0.101845
                CHANNELS 3 Zrotation Xrotation Yrotation
                End Site
                {
                  OFFSET 17.8396 -0.255518 -0.000602873
                }
              }
            }
          }
        }
      }
    }
  }
  JOINT LeftUpLeg
  {
    OFFSET -5.61296 -2.22332 -10.2353
    CHANNELS 3 Zrotation Xrotation Yrotation
    JOINT LeftLeg
    {
      OFFSET 2.56703 -44.7417 -7.93097
      CHANNELS 3 Zrotation Xrotation Yrotation
      JOINT LeftFoot
      {
        OFFSET 3.16933 -46.5642 -3.96578
        CHANNELS 3 Zrotation Xrotation Yrotation
        JOINT LeftToeBase
        {
          OFFSET 0.346054 -6.02161 12.8035
          CHANNELS 3 Zrotation Xrotation Yrotation
          End Site
          {
            OFFSET 0.134235 -1.35082 5.13018
          }
        }
      }
    }
  }
  JOINT RightUpLeg
  {
    OFFSET -5.7928 -1.72406 10.6446
    CHANNELS 3 Zrotation Xrotation Yrotation
    JOINT RightLeg
    {
      OFFSET -2.57161 -44.7178 -7.85259
      CHANNELS 3 Zrotation Xrotation Yrotation
      JOINT RightFoot
      {
        OFFSET -3.10148 -46.5936 -4.03391
        CHANNELS 3 Zrotation Xrotation Yrotation
        JOINT RightToeBase
        {
          OFFSET -0.0828122 -6.13587 12.8035
          CHANNELS 3 Zrotation Xrotation Yrotation
          End Site
          {
            OFFSET -0.131328 -1.35082 5.13018
          }
        }
      }
    }
  }
}
MOTION
Frames: 12
Frame Time: 0.03333333333333333
0.0000 93.1000 0.0000 72.8844 -25.8120 -1.6353 -70.8882 -0.2510 87.9697 105.4719 73.1329 -20.8305 2.0242 21.2820 10.7955 -125.3482 33.0086 155.7038 161.1010 74.3373 -131.8090 0.2579 -7.1891 -16.9463 -55.0454 34.9942 -108.0297 5.9205 -5.2537 -126.2111 -0.0047 -0.2570 0.2731 -1.9954 5.0580 45.9652 -100.6574 -3.0883 74.0644 4.1696 -6.9884 36.0088 -0.0840 -0.3621 0.2381 -37.1813 18.8547 90.2479 -10.1296 67.4093 -4.2124 0.1308 -23.1550 -1.6479 5.4513 -14.8880 18.1788 -40.9808 -22.8138 76.5461 1.1851 36.0981 -4.4008 -1.3962 5.9010 -0.8299 0.9786 -11.8295 2.0681 
0.0000 93.1000 0.0000 73.8073 -25.9223 -0.9163 -70.8338 -0.0712 87.8993 105.6274 73.2205 -20.5556 1.9871 21.3597 10.8081 -125.5564 32.9097 157.0829 161.3334 74.7722 -130.9724 0.6345 -7.1465 -16.7460 -54.9527 35.2736 -108.6124 5.2792 -4.6139 -125.7002 0.0588 -0.0112 0.2259 -1.6134 5.1464 45.9363 -99.8809 -2.8751 74.3342 4.2507 -7.1194 36.1681 0.0318 -0.3631 0.5178 -36.9471 18.7718 90.3157 -9.9887 68.5495 -5.1886 0.2347 -22.0701 -1.7610 5.8909 -15.9567 19.9917 -41.8730 -22.5988 76.5467 0.8870 35.6657 -4.4449 -0.7770 5.9850 -1.0850 1.1901 -11.4663 2.2061 
0.0000 93.1000 0.0000 73.4960 -25.9430 -1.1742 -70.7739 -0.1555 87.7620 106.5129 73.1244 -19.9233 2.1089 21.1164 10.6754 -125.4795 32.9189 156.7420 161.2581 74.8104 -132.6909 0.5298 -7.0240 -16.4867 -54.1281 35.6445 -108.9505 4.6165 -4.4004 -125.0884 0.0508 -0.3341 0.3046 -1.7456 4.9020 46.0780 -99.4832 -2.9962 74.0761 4.4675 -7.0167 36.6944 -0.1141 -0.3978 0.4672 -36.5820 18.8416 90.5309 -9.8111 68.5799 -5.4666 0.1028 -22.0089 -1.9525 5.9616 -16.2506 20.2482 -41.7653 -22.5996 77.1639 0.6130 35.9212 -3.1530 -0.3206 5.8552 -1.2857 1.2477 -11.4678 2.1241 
0.0000 93.1000 0.0000 73.5647 -26.1824 -1.9465 -70.7915 -0.3725 87.7670 104.8591 73.4856 -19.5381 2.5288 20.9921 10.7730 -126.2879 33.1162 156.6866 160.1239 75.0238 -132.1741 0.7510 -7.0955 -16.9577 -53.9884 35.5742 -109.7420 4.4555 -4.9575 -125.0453 0.1134 -0.0412 -0.1408 -1.8257 4.7020 45.9800 -100.2101 -2.0087 73.6650 4.9860 -6.8470 36.7147 0.1005 -0.7319 0.0016 -36.8145 18.8281 90.5645 -10.2610 68.3432 -6.4449 0.5020 -22.5473 -2.1836 6.5531 -16.5718 20.6664 -41.7579 -22.7291 77.6371 0.3662 35.8616 -3.9721 -1.0670 5.6557 -0.9954 1.4647 -11.7710 1.8585 
0.0000 93.1000 0.0000 73.2897 -25.7231 -1.1460 -70.8108 -0.6877 87.8018 104.5138 73.7204 -18.7204 2.2834 21.4503 9.9039 -126.1459 32.7567 155.3921 161.3328 75.2051 -132.6675 0.1161 -7.5789 -16.9471 -53.6749 35.0768 -109.8278 3.2317 -4.0868 -124.8515 0.1656 -0.4919 0.5194 -2.0181 4.8161 45.9018 -100.2626 -1.1162 73.7314 4.4552 -7.3136 37.9268 -0.4224 0.0956 0.5369 -37.0035 18.7020 91.4753 -10.0114 68.3159 -5.0177 0.3123 -22.5860 -1.7026 6.0505 -15.6912 18.8738 -41.8328 -22.6955 78.2322 -0.5519 35.9845 -5.1377 -1.0718 5.6414 -1.4998 1.5759 -11.5546 2.3686 
0.0000 93.1000 0.0000 73.5152 -25.9989 -1.9887 -70.7364 -0.6848 87.7949 104.8877 73.3653 -20.1675 1.8797 21.4734 10.3786 -125.4857 33.1843 154.4031 164.8426 75.6123 -132.9279 0.0825 -8.0867 -16.9729 -53.2065 34.9398 -111.4063 3.6642 -3.4120 -123.7902 0.2303 -0.4290 0.1586 -2.2837 5.0331 46.0452 -101.3546 -1.0330 73.3171 5.6089 -7.8724 40.9884 -0.3287 -0.3892 0.1829 -37.1267 18.6903 91.3057 -10.0033 68.1161 -5.6368 0.1950 -22.5999 -1.7210 6.4773 -15.8941 19.6290 -41.1199 -22.7232 79.6773 -0.3486 36.9232 -5.0443 -0.5370 5.9715 -1.2748 0.8625 -12.5570 2.2685 
0.0000 93.1000 0.0000 73.5877 -25.6445 -2.1195 -70.7289 -0.5469 87.7675 104.9407 73.7942 -21.0169 2.0783 21.5836 10.9366 -125.1167 33.2235 155.5652 162.8570 75.5956 -131.3151 0.1340 -8.0267 -17.2661 -52.7033 34.7472 -112.5617 3.7496 -3.3429 -121.6673 0.1597 -0.3631 0.4616 -2.1489 4.9946 45.9060 -103.7353 -0.0895 72.9827 7.0889 -7.6060 44.8558 -0.3424 -0.1728 0.4290 -36.9542 18.9867 91.4135 -10.5115 68.3467 -7.1011 -0.1396 -21.9174 -1.6747 6.5866 -17.0723 21.7865 -39.6670 -22.5628 80.9674 0.4343 39.0566 -3.5924 -1.3222 6.8133 -1.1648 1.1834 -14.1714 3.3145 
0.0000 93.1000 0.0000 73.3022 -25.9118 -1.1353 -70.6754 -0.6293 87.8269 105.0655 73.7587 -20.9880 2.1820 21.4049 11.5514 -124.3051 33.8559 156.1622 162.2452 75.1405 -130.0978 0.1902 -8.3410 -17.5899 -53.2812 33.9500 -116.5005 4.5965 -3.9642 -118.0243 -0.0756 -0.4226 0.2977 -2.2850 4.8061 45.0764 -107.2681 -0.0673 73.6655 7.1695 -6.4943 50.0152 -0.2356 -0.3152 0.1751 -37.5281 19.7298 91.4143 -10.1842 67.4627 -5.8704 -0.1469 -21.9607 -1.7640 6.6613 -17.0979 20.9333 -37.0575 -21.9760 83.5048 1.0383 42.2946 0.0716 -1.6858 7.3165 -0.8754 1.3301 -15.2469 1.8508 
0.0000 93.1000 0.0000 72.1373 -26.7198 -1.4409 -70.6466 -0.6558 87.8304 103.1780 74.0412 -19.7783 2.3232 21.3221 11.6751 -124.4051 33.8819 156.7742 160.5897 75.0346 -130.1634 -0.0154 -9.2118 -17.2237 -55.7724 32.0057 -121.4268 7.7737 -4.9346 -114.0688 -0.2511 -0.4623 0.2922 -2.3442 4.7740 44.4527 -110.5171 -0.7415 76.5188 4.3546 -3.7962 55.1592 -0.2259 -0.3061 0.0503 -38.0452 20.5928 91.1462 -9.0430 66.6987 -6.3287 -0.7329 -21.4423 -1.6213 6.4788 -16.5579 19.8885 -35.8573 -21.9865 85.3203 2.0137 43.6758 3.9430 -3.7940 8.7255 -0.6591 1.2700 -16.4097 1.6488 
0.0000 93.1000 0.0000 72.4201 -27.1162 -3.1048 -70.6184 -0.4191 87.8161 102.8491 73.9473 -18.5586 2.7842 20.9975 11.3272 -124.1657 33.8747 158.1047 159.8334 74.9576 -128.5463 0.2444 -9.8604 -17.4102 -58.5486 29.1676 -126.4943 10.0807 -4.9650 -110.2565 -0.2188 -0.2599 0.3191 -2.1382 5.2546 44.0660 -114.5447 0.0667 79.7468 2.2994 -2.1911 60.0010 -0.0273 -0.2717 0.2288 -38.4725 20.7359 91.3009 -9.6414 65.3694 -6.7220 -1.5548 -20.4740 -1.6976 6.7232 -17.5402 20.2407 -34.7823 -21.7954 87.0789 1.6560 40.1852 3.8864 -4.2028 9.7312 -0.4097 1.3649 -13.8128 -0.5141 
0.0000 93.1000 0.0000 72.1347 -27.8624 -1.9714 -70.5478 -0.3456 87.7141 102.1488 73.7236 -16.8861 2.8400 21.0080 10.9829 -124.1633 34.2928 157.8378 160.8495 75.4435 -131.4767 0.2723 -10.8701 -17.2103 -61.6832 26.9654 -133.1850 11.1762 -4.3207 -106.0520 -0.0704 -0.2494 0.1349 -2.0436 5.2987 42.8722 -117.9612 0.7118 84.9103 1.0397 -1.1398 63.9740 -0.1092 -0.3793 0.3241 -38.8293 21.5913 91.2362 -8.7989 65.0357 -6.7780 -1.9100 -20.6741 -1.8817 6.0273 -15.6007 18.7541 -35.6230 -23.1890 84.9209 0.4681 35.0056 -2.0343 -4.0543 11.4561 -0.5729 0.2120 -3.8991 -1.9090 
0.0000 93.1000 0.0000 72.3423 -27.1603 -3.1170 -70.4275 -0.1085 87.7591 99.0552 72.7262 -13.9314 3.3870 20.3041 9.8388 -124.2621 34.3384 157.9784 161.0910 75.7742 -130.6435 0.0387 -11.8320 -16.7149 -64.9179 25.3465 -138.5037 12.8109 -4.2732 -102.7633 -0.1583 0.0275 -0.0985 -1.7900 5.8447 40.9881 -122.4246 1.3839 88.6190 0.0796 -0.8161 67.1452 -0.3559 -0.6967 0.1466 -39.6797 22.6067 91.0681 -7.9735 63.1023 -7.9879 -2.2487 -19.8406 -2.0423 5.8373 -16.1749 18.8776 -37.8417 -25.3680 80.6371 -0.5287 28.4713 -3.2337 -3.7654 16.8894 -1.0120 -1.6670 2.9959 0.7032 
